<?xml version="1.0" encoding="UTF-8" standalone="no"?>
<svg width="526px" height="98px" viewBox="0 0 526 98" version="1.1" xmlns="http://www.w3.org/2000/svg" xmlns:xlink="http://www.w3.org/1999/xlink" xmlns:sketch="http://www.bohemiancoding.com/sketch/ns">
    <title>logo</title>
    <description>Created with Sketch (http://www.bohemiancoding.com/sketch)</description>
    <defs></defs>
    <g id="Page-1" stroke="none" stroke-width="1" fill="none" fill-rule="evenodd" sketch:type="MSPage">
        <g id="讓晨曦照亮民主-+-A-NEW-DAY-WILL-COME" sketch:type="MSLayerGroup" fill="#000000">
            <path d="M133.802,32.774 C135.356,31.766 136.49,30.968 138.338,29.498 L136.658,27.86 C134.978,29.372 133.844,30.128 132.206,31.178 C131.324,30.17 130.484,28.868 129.854,27.566 L140.228,27.566 L140.228,25.466 L132.878,25.466 L132.878,22.988 L138.296,22.988 L138.296,20.846 L132.878,20.846 L132.878,18.746 L139.262,18.746 L139.262,16.646 L132.878,16.646 L132.878,14.462 L137.834,14.462 L137.834,7.7 L128.09,7.7 L128.09,14.462 L130.484,14.462 L130.484,16.646 L124.058,16.646 L124.058,14.462 L126.494,14.462 L126.494,7.7 L116.918,7.7 L116.918,14.462 L121.706,14.462 L121.706,16.646 L115.994,16.646 L115.994,18.746 L121.706,18.746 L121.706,20.846 L117.086,20.846 L117.086,22.988 L121.706,22.988 L121.706,25.466 L115.07,25.466 L115.07,27.566 L124.184,27.566 C121.874,29.204 118.766,30.674 114.776,31.976 L116.12,34.034 C117.926,33.488 118.808,32.942 120.362,32.144 L120.362,35.84 C119.228,36.134 118.43,36.302 116.876,36.638 L117.674,38.906 C122.756,37.562 125.696,36.68 130.064,35.21 L129.812,33.068 C127.292,33.908 125.15,34.622 122.798,35.252 L122.798,30.842 C124.352,29.834 125.864,28.742 127.04,27.566 L127.502,27.566 C129.896,33.278 133.718,36.596 139.724,38.99 L141.026,36.638 C137.582,35.63 135.692,34.412 133.802,32.774 Z M114.02,38.15 L114.02,24.584 L104.654,24.584 L104.654,38.15 L106.964,38.15 L106.964,36.302 L111.71,36.302 L111.71,38.15 L114.02,38.15 Z M140.396,5.726 L140.396,3.542 L129.098,3.542 C128.552,2.324 128.3,1.652 127.502,0.182 L125.15,1.148 C125.78,2.282 125.99,2.702 126.368,3.542 L114.65,3.542 L114.65,5.726 L140.396,5.726 Z M115.952,9.674 L115.952,7.406 L110.408,7.406 L111.416,6.986 C110.534,4.676 109.82,2.954 108.686,0.602 L106.586,1.568 C107.594,3.92 108.098,5.264 108.896,7.406 L103.058,7.406 L103.058,9.674 L115.952,9.674 Z M111.71,34.076 L106.964,34.076 L106.964,26.81 L111.71,26.81 L111.71,34.076 Z M114.314,15.554 L114.314,13.286 L104.36,13.286 L104.36,15.554 L114.314,15.554 Z M114.314,21.14 L114.314,18.872 L104.36,18.872 L104.36,21.14 L114.314,21.14 Z M135.566,12.488 L130.358,12.488 L130.358,9.632 L135.566,9.632 L135.566,12.488 Z M124.226,12.488 L119.186,12.488 L119.186,9.632 L124.226,9.632 L124.226,12.488 Z M130.484,20.846 L124.058,20.846 L124.058,18.746 L130.484,18.746 L130.484,20.846 Z M130.484,25.466 L124.058,25.466 L124.058,22.988 L130.484,22.988 L130.484,25.466 Z M184.708,14.882 L184.708,2.072 L154.594,2.072 L154.594,14.882 L184.708,14.882 Z M185.17,24.332 L185.17,21.182 L159.256,21.182 L159.256,24.332 L185.17,24.332 Z M188.362,34.58 C185.338,34.412 182.818,34.076 180.088,33.362 C182.44,32.396 183.826,31.514 185.38,30.674 L182.65,29.078 L187.522,29.078 L187.522,25.592 L157.114,25.592 C157.114,24.878 157.156,24.626 157.156,23.996 L157.156,19.88 L186.85,19.88 L186.85,16.226 L152.872,16.226 L152.872,23.996 C152.872,28.574 151.402,32.774 149.512,35.756 L153.628,38.99 C155.14,36.134 156.19,32.942 156.82,29.078 L161.062,29.078 L161.062,34.286 C159.088,34.496 157.576,34.622 156.064,34.664 L157.114,38.906 C162.196,38.234 165.808,37.52 170.512,36.638 L170.428,32.816 C168.622,33.194 167.488,33.362 165.682,33.656 L165.682,29.078 L168.832,29.078 C172.864,35.42 178.87,38.108 187.228,38.738 L188.362,34.58 Z M180.088,7.028 L159.256,7.028 L159.256,5.558 L180.088,5.558 L180.088,7.028 Z M180.088,11.522 L159.256,11.522 L159.256,10.01 L180.088,10.01 L180.088,11.522 Z M181.18,29.078 C179.122,30.254 177.946,30.926 176.476,31.598 C175.426,30.968 174.586,30.296 173.452,29.078 L181.18,29.078 Z M235.026,15.134 L235.026,11.9 L224.064,11.9 L224.064,10.514 L233.64,10.514 L233.64,7.49 L224.064,7.49 L224.064,6.188 L234.522,6.188 L234.522,2.996 L229.776,2.996 C230.154,2.282 230.322,1.862 230.616,1.4 L225.87,0.392 C225.492,1.358 225.03,2.156 224.526,2.996 L219.15,2.996 C218.688,1.862 218.394,1.19 218.016,0.392 L213.396,1.442 C213.69,1.904 213.858,2.282 214.32,2.996 L209.364,2.996 L209.364,6.188 L219.36,6.188 L219.36,7.49 L210.204,7.49 L210.204,10.514 L219.36,10.514 L219.36,11.9 L208.902,11.9 L208.902,15.134 L235.026,15.134 Z M228.558,20.006 C228.516,18.452 228.516,17.402 228.516,15.764 L224.484,15.764 C224.484,17.318 224.484,18.368 224.526,20.006 L218.562,20.006 L218.562,18.788 C220.368,18.62 221.964,18.41 223.266,18.2 L222.132,15.386 C218.1,15.932 213.9,16.226 209.406,16.52 L210.162,19.502 C211.716,19.376 213.186,19.376 214.824,19.166 L214.824,20.006 L208.482,20.006 L208.482,23.282 L212.556,23.282 C210.918,24.584 209.532,25.298 207.81,26.096 L207.81,2.828 L197.856,2.828 L197.856,37.1 L201.762,37.1 L201.762,34.244 L203.904,34.244 L203.904,36.05 L207.81,36.05 L207.81,26.768 L209.196,28.112 L209.196,30.464 L211.506,30.464 L209.658,34.076 L217.89,34.076 C217.89,34.454 217.848,34.622 217.806,34.748 L217.764,34.874 C217.47,35.672 216.798,35.504 215.664,35.504 C214.194,35.504 212.514,35.378 210.624,35.21 L211.17,38.402 C213.186,38.528 214.488,38.57 215.16,38.57 C217.512,38.612 219.108,38.234 220.242,37.604 C220.872,37.268 221.334,36.68 221.796,35.21 L223.602,38.444 C224.904,37.73 225.912,36.848 227.382,35.714 C227.76,36.26 228.096,36.722 228.432,37.058 C229.44,38.192 230.238,38.738 231.204,38.738 C232.044,38.738 232.674,38.444 233.22,37.94 C234.186,37.226 235.068,35.756 235.824,33.572 L232.758,31.766 L232.38,32.9 C232.338,33.026 232.296,33.194 232.296,33.32 C232.002,34.118 231.708,34.496 231.414,34.496 C230.952,34.496 230.574,33.95 230.196,32.9 C231.75,31.094 233.346,29.12 234.816,26.726 L231.792,24.584 C230.826,26.432 230.238,27.608 229.23,28.952 C228.936,27.272 228.81,25.424 228.684,23.282 L235.026,23.282 L235.026,20.006 L228.558,20.006 Z M234.606,18.032 C233.808,17.066 232.842,16.184 231.96,15.386 L229.608,17.234 C230.448,18.116 231.414,18.956 232.296,20.006 L234.606,18.032 Z M223.56,25.172 C222.426,24.374 221.544,23.87 220.704,23.366 L219.108,25.34 C220.326,26.138 220.956,26.6 221.922,27.398 L223.56,25.172 Z M218.562,27.524 L218.562,23.282 L224.652,23.282 C224.82,27.356 225.198,29.96 225.87,32.102 C224.652,33.236 223.518,33.992 221.88,34.79 C222.048,33.908 222.174,32.9 222.216,31.43 L214.782,31.43 L215.454,30.464 L223.392,30.464 L223.392,27.524 L218.562,27.524 Z M203.904,15.932 L201.762,15.932 L201.762,7.028 L203.904,7.028 L203.904,15.932 Z M214.824,27.524 L211.17,27.524 C212.976,26.39 213.606,26.012 214.824,24.5 L214.824,27.524 Z M203.904,30.38 L201.762,30.38 L201.762,19.67 L203.904,19.67 L203.904,30.38 Z M279.296,12.194 C279.758,10.472 279.884,7.322 280.01,2.744 L259.766,2.744 L259.766,5.054 L267.41,5.054 C266.612,9.8 264.764,12.782 258.506,15.344 L259.64,17.612 C266.15,14.924 268.922,11.27 269.804,5.054 L277.322,5.054 C277.322,7.364 276.986,10.766 276.65,12.068 C276.44,12.866 276.062,12.992 275.012,12.992 C273.878,12.992 272.282,12.866 270.14,12.488 L270.392,15.05 C272.03,15.344 273.542,15.47 274.718,15.47 C277.742,15.47 278.708,14.462 279.296,12.194 Z M279.044,28.238 L279.044,17.234 L261.782,17.234 L261.782,28.238 L279.044,28.238 Z M276.482,25.97 L264.344,25.97 L264.344,19.544 L276.482,19.544 L276.482,25.97 Z M282.404,37.436 C279.968,33.992 278.246,32.018 275.768,28.868 L273.794,30.464 C276.356,33.698 277.868,35.714 280.304,39.368 L282.404,37.436 Z M258.128,28.364 L258.128,3.584 L246.746,3.584 L246.746,28.364 L249.182,28.364 L249.182,26.138 L255.65,26.138 L255.65,28.364 L258.128,28.364 Z M255.65,13.538 L249.224,13.538 L249.224,5.894 L255.65,5.894 L255.65,13.538 Z M255.65,23.87 L249.224,23.87 L249.224,15.806 L255.65,15.806 L255.65,23.87 Z M271.022,37.352 C269.678,34.202 268.922,32.606 267.242,29.456 L265.142,30.674 C266.612,33.614 267.41,35.462 268.67,38.612 L271.022,37.352 Z M261.32,38.108 C260.522,35.042 259.934,33.152 258.8,29.792 L256.49,30.674 C257.582,33.866 257.96,35.672 258.758,38.948 L261.32,38.108 Z M245.906,39.41 C248.594,36.302 250.022,34.118 252.374,30.674 L250.316,29.246 C248.048,32.522 246.662,34.496 243.932,37.646 L245.906,39.41 Z M328.522,7.322 L328.522,4.76 L312.226,4.76 L312.436,4.592 C311.05,2.954 310,1.736 308.32,0.098 L306.346,1.652 C307.564,2.954 308.278,3.794 309.076,4.76 L291.31,4.76 L291.31,7.322 L328.522,7.322 Z M320.71,18.284 L320.71,10.136 L299.122,10.136 L299.122,18.284 L320.71,18.284 Z M318.106,15.848 L301.768,15.848 L301.768,12.488 L318.106,12.488 L318.106,15.848 Z M328.816,34.454 C328.942,33.488 329.026,32.606 329.068,31.43 L326.254,30.212 C326.128,32.102 326.128,33.026 326.002,33.992 C325.876,34.958 325.708,35.084 324.322,35.126 C321.718,35.252 319.324,35.252 317.182,35.126 C316.006,35.126 315.838,34.958 315.838,33.32 L315.838,25.718 L313.192,25.718 L313.192,33.488 C313.192,36.68 313.906,37.772 317.056,37.898 C319.282,37.982 321.718,37.982 324.364,37.898 C327.388,37.772 328.48,37.268 328.816,34.454 Z M326.968,28.322 L326.968,21.014 L292.738,21.014 L292.738,28.49 L295.426,28.49 L295.426,23.492 L324.322,23.492 L324.322,28.322 L326.968,28.322 Z M291.772,39.2 C301.348,37.856 305.548,35.42 306.43,25.97 L303.742,25.634 C302.86,33.95 299.584,35.042 290.764,36.386 L291.772,39.2 Z M372.54,38.57 C374.85,38.57 375.354,36.764 376.362,31.22 L373.548,29.33 C373.002,34.202 372.876,35.588 372.078,35.588 C370.272,35.588 363.972,31.598 360.948,22.694 L375.522,22.694 L375.522,20.048 L360.234,20.048 C359.772,18.242 359.52,16.184 359.436,13.874 L371.532,13.874 L371.532,2.618 L342.468,2.618 L342.468,34.496 C341.04,34.832 339.948,35.042 337.806,35.504 L338.856,38.234 C345.45,36.764 350.532,35.462 358.428,33.236 L357.966,30.548 C353.766,31.766 350.112,32.732 345.24,33.866 L345.24,22.694 L357.966,22.694 C361.116,33.488 368.886,38.57 372.54,38.57 Z M345.24,20.048 L345.24,13.874 L356.664,13.874 C356.706,16.1 356.958,18.158 357.336,20.048 L345.24,20.048 Z M368.76,11.27 L345.24,11.27 L345.24,5.222 L368.76,5.222 L368.76,11.27 Z M422.354,37.394 L422.354,34.58 L405.596,34.58 L405.596,23.408 L419.078,23.408 L419.078,20.594 L405.596,20.594 L405.596,11.69 L421.262,11.69 L421.262,8.876 L405.428,8.876 L406.646,8.162 C404.882,4.844 403.748,3.164 401.942,0.182 L399.632,1.526 C401.312,4.34 402.362,6.02 403.706,8.876 L386.99,8.876 L386.99,11.69 L402.53,11.69 L402.53,20.594 L389.006,20.594 L389.006,23.408 L402.53,23.408 L402.53,34.58 L385.772,34.58 L385.772,37.394 L422.354,37.394 Z" id="讓晨曦照亮民主" sketch:type="MSShapeGroup"></path>
            <path d="M3.827,97 L0.43,97 L13.588,66.556 L16.598,66.556 L29.67,97 L26.23,97 L22.876,89.002 L7.138,89.002 L3.827,97 Z M8.299,86.164 L21.715,86.164 L15.007,69.996 L8.299,86.164 Z M66.565,97 L54.31,77.091 L54.181,77.091 L54.353,97 L47.215,97 L47.215,66.556 L55.6,66.556 L67.812,86.422 L67.941,86.422 L67.769,66.556 L74.907,66.556 L74.907,97 L66.565,97 Z M83.185,97 L83.185,66.556 L103.653,66.556 L103.653,72.791 L90.28,72.791 L90.28,78.51 L102.922,78.51 L102.922,84.401 L90.28,84.401 L90.28,90.722 L104.427,90.722 L104.427,97 L83.185,97 Z M143.536,97 L136.269,97 L130.249,76.403 L130.12,76.403 L124.1,97 L116.79,97 L108.147,66.556 L116.059,66.556 L120.875,86.809 L121.004,86.809 L126.422,66.556 L134.076,66.556 L139.537,86.809 L139.666,86.809 L144.568,66.556 L152.222,66.556 L143.536,97 Z M198.018,81.692 C198.018,84.3580133 197.523505,86.6584903 196.5345,88.5935 C195.545495,90.5285097 194.241175,92.1194938 192.6215,93.3665 C191.001825,94.6135062 189.174344,95.5308304 187.139,96.1185 C185.103656,96.7061696 183.039677,97 180.947,97 L169.595,97 L169.595,66.556 L180.603,66.556 C182.753011,66.556 184.874323,66.8068308 186.967,67.3085 C189.059677,67.8101692 190.922992,68.6414942 192.557,69.8025 C194.191008,70.9635058 195.509662,72.5186569 196.513,74.468 C197.516338,76.4173431 198.018,78.825319 198.018,81.692 Z M190.364,81.692 C190.364,79.9719914 190.084503,78.545839 189.5255,77.4135 C188.966497,76.281161 188.221171,75.37817 187.2895,74.7045 C186.357829,74.03083 185.297173,73.5506681 184.1075,73.264 C182.917827,72.9773319 181.69234,72.834 180.431,72.834 L176.776,72.834 L176.776,90.636 L180.259,90.636 C181.577673,90.636 182.846161,90.4855015 184.0645,90.1845 C185.282839,89.8834985 186.357829,89.3890034 187.2895,88.701 C188.221171,88.0129966 188.966497,87.0956724 189.5255,85.949 C190.084503,84.8023276 190.364,83.3833418 190.364,81.692 Z M224.485,97 L222.12,91.023 L210.338,91.023 L208.102,97 L200.104,97 L212.875,66.556 L220.013,66.556 L232.655,97 L224.485,97 Z M216.315,74.683 L212.445,85.132 L220.099,85.132 L216.315,74.683 Z M249.404,84.1 L249.404,97 L242.051,97 L242.051,84.1 L230.613,66.556 L239.514,66.556 L246.007,77.822 L252.5,66.556 L261.1,66.556 L249.404,84.1 Z M285.869,92.743 L285.955,92.743 L293.566,66.556 L297.264,66.556 L304.875,92.743 L304.961,92.743 L312.4,66.556 L315.668,66.556 L306.681,97 L303.069,97 L295.415,70.856 L295.329,70.856 L287.675,97 L284.063,97 L275.076,66.556 L278.344,66.556 L285.869,92.743 Z M325.408,97 L322.312,97 L322.312,66.556 L325.408,66.556 L325.408,97 Z M338.588,94.248 L352.778,94.248 L352.778,97 L335.492,97 L335.492,66.556 L338.588,66.556 L338.588,94.248 Z M362.518,94.248 L376.708,94.248 L376.708,97 L359.422,97 L359.422,66.556 L362.518,66.556 L362.518,94.248 Z M420.698,92.098 C420.181997,92.8720039 419.558504,93.6029966 418.8275,94.291 C418.096496,94.9790034 417.250838,95.5809974 416.2905,96.097 C415.330162,96.6130026 414.269506,97.0214985 413.1085,97.3225 C411.947494,97.6235015 410.679007,97.774 409.303,97.774 C407.009655,97.774 404.888343,97.3726707 402.939,96.57 C400.989657,95.7673293 399.312674,94.6565071 397.908,93.2375 C396.503326,91.8184929 395.406837,90.1343431 394.6185,88.185 C393.830163,86.2356569 393.436,84.1000116 393.436,81.778 C393.436,79.4559884 393.837329,77.3203431 394.64,75.371 C395.442671,73.4216569 396.553493,71.7375071 397.9725,70.3185 C399.391507,68.8994929 401.06849,67.7886707 403.0035,66.986 C404.93851,66.1833293 407.038322,65.782 409.303,65.782 C410.421006,65.782 411.517495,65.8966655 412.5925,66.126 C413.667505,66.3553345 414.677995,66.6778313 415.624,67.0935 C416.570005,67.5091687 417.429996,68.0108304 418.204,68.5985 C418.978004,69.1861696 419.622997,69.8526629 420.139,70.598 L417.559,72.49 C417.243665,72.0026642 416.820836,71.5153358 416.2905,71.028 C415.760164,70.5406642 415.13667,70.1106685 414.42,69.738 C413.70333,69.3653315 412.922171,69.0643345 412.0765,68.835 C411.230829,68.6056655 410.320672,68.491 409.346,68.491 C407.36799,68.491 405.597841,68.8493298 404.0355,69.566 C402.473159,70.2826702 401.147339,71.2501606 400.058,72.4685 C398.968661,73.6868394 398.137336,75.0986586 397.564,76.704 C396.990664,78.3093414 396.704,80.0006578 396.704,81.778 C396.704,83.5553422 396.99783,85.2466586 397.5855,86.852 C398.17317,88.4573414 399.011661,89.8691606 400.101,91.0875 C401.190339,92.3058394 402.516159,93.2733298 404.0785,93.99 C405.640841,94.7066703 407.396657,95.065 409.346,95.065 C411.094675,95.065 412.757325,94.7066703 414.334,93.99 C415.910675,93.2733298 417.229328,92.1266745 418.29,90.55 L420.698,92.098 Z M457.614,81.778 C457.614,84.1000116 457.212671,86.2356569 456.41,88.185 C455.607329,90.1343431 454.496507,91.8184929 453.0775,93.2375 C451.658493,94.6565071 449.98151,95.7673293 448.0465,96.57 C446.11149,97.3726707 444.011678,97.774 441.747,97.774 C439.482322,97.774 437.38251,97.3726707 435.4475,96.57 C433.51249,95.7673293 431.835507,94.6565071 430.4165,93.2375 C428.997493,91.8184929 427.886671,90.1343431 427.084,88.185 C426.281329,86.2356569 425.88,84.1000116 425.88,81.778 C425.88,79.4559884 426.281329,77.3203431 427.084,75.371 C427.886671,73.4216569 428.997493,71.7375071 430.4165,70.3185 C431.835507,68.8994929 433.51249,67.7886707 435.4475,66.986 C437.38251,66.1833293 439.482322,65.782 441.747,65.782 C444.011678,65.782 446.11149,66.1833293 448.0465,66.986 C449.98151,67.7886707 451.658493,68.8994929 453.0775,70.3185 C454.496507,71.7375071 455.607329,73.4216569 456.41,75.371 C457.212671,77.3203431 457.614,79.4559884 457.614,81.778 Z M454.346,81.778 C454.346,80.0006578 454.059336,78.3093414 453.486,76.704 C452.912664,75.0986586 452.081339,73.6868394 450.992,72.4685 C449.902661,71.2501606 448.576841,70.2826702 447.0145,69.566 C445.452159,68.8493298 443.696343,68.491 441.747,68.491 C439.797657,68.491 438.041841,68.8493298 436.4795,69.566 C434.917159,70.2826702 433.591339,71.2501606 432.502,72.4685 C431.412661,73.6868394 430.581336,75.0986586 430.008,76.704 C429.434664,78.3093414 429.148,80.0006578 429.148,81.778 C429.148,83.5553422 429.434664,85.2466586 430.008,86.852 C430.581336,88.4573414 431.412661,89.861994 432.502,91.066 C433.591339,92.270006 434.917159,93.2303297 436.4795,93.947 C438.041841,94.6636702 439.797657,95.022 441.747,95.022 C443.696343,95.022 445.452159,94.6636702 447.0145,93.947 C448.576841,93.2303297 449.902661,92.270006 450.992,91.066 C452.081339,89.861994 452.912664,88.4573414 453.486,86.852 C454.059336,85.2466586 454.346,83.5553422 454.346,81.778 Z M481.114,91.754 L481.157,91.754 L491.348,66.556 L496.078,66.556 L496.078,97 L492.982,97 L492.982,70.555 L492.896,70.555 L481.888,97 L480.254,97 L469.246,70.555 L469.16,70.555 L469.16,97 L466.064,97 L466.064,66.556 L470.794,66.556 L481.114,91.754 Z M509.258,94.248 L525.555,94.248 L525.555,97 L506.162,97 L506.162,66.556 L525.039,66.556 L525.039,69.308 L509.258,69.308 L509.258,79.8 L524.007,79.8 L524.007,82.509 L509.258,82.509 L509.258,94.248 Z" id="A-NEW-DAY-WILL-COME" sketch:type="MSShapeGroup"></path>
        </g>
    </g>
</svg>