<?xml version="1.0" encoding="UTF-8" standalone="no"?>
<svg width="263px" height="13px" viewBox="0 0 263 13" version="1.1" xmlns="http://www.w3.org/2000/svg" xmlns:xlink="http://www.w3.org/1999/xlink" xmlns:sketch="http://www.bohemiancoding.com/sketch/ns">
    <title>slogan</title>
    <description>Created with Sketch (http://www.bohemiancoding.com/sketch)</description>
    <defs></defs>
    <g id="Page-1" stroke="none" stroke-width="1" fill="none" fill-rule="evenodd" sketch:type="MSPage">
        <g id="Imported-Layers" sketch:type="MSLayerGroup" transform="translate(-277.000000, -22.000000)">
            <path d="M122.575,0.175 L964.465,0.175 L964.465,56.868 L122.575,56.868 L122.575,0.175 Z M964.465,47.891 L964.465,49.391 L962.965,49.391 L964.465,47.891 Z" id="Stroke-1" stroke="#1A1918" sketch:type="MSShapeGroup"></path>
            <path d="M280.243,26.008 L280.243,25.492 L281.571,25.492 C281.389,25.005 281.274,24.7 281.045,24.165 L281.523,23.945 C281.781,24.48 281.943,24.872 282.144,25.397 L281.915,25.492 L283.175,25.492 L283.175,26.008 L280.243,26.008 L280.243,26.008 Z M280.539,26.83 L282.803,26.83 L282.803,27.346 L280.539,27.346 L280.539,26.83 Z M280.539,28.1 L282.803,28.1 L282.803,28.616 L280.539,28.616 L280.539,28.1 Z M282.21,32.484 L282.21,32.063 L281.131,32.063 L281.131,32.484 L280.606,32.484 L280.606,29.399 L282.736,29.399 L282.736,32.484 L282.21,32.484 L282.21,32.484 Z M281.131,31.558 L282.21,31.558 L282.21,29.906 L281.131,29.906 L281.131,31.558 Z M282.879,25.11 L282.879,24.614 L285.544,24.614 C285.458,24.422 285.411,24.327 285.267,24.069 L285.802,23.85 C285.984,24.184 286.041,24.336 286.165,24.614 L288.735,24.614 L288.735,25.11 L282.879,25.11 L282.879,25.11 Z M288.878,32.141 L288.582,32.675 C287.216,32.131 286.347,31.376 285.802,30.077 L285.697,30.077 C285.43,30.345 285.086,30.593 284.732,30.822 L284.732,31.825 C285.267,31.682 285.754,31.52 286.328,31.328 L286.385,31.815 C285.391,32.149 284.723,32.351 283.567,32.656 L283.386,32.141 C283.739,32.063 283.92,32.025 284.178,31.959 L284.178,31.118 C283.825,31.3 283.624,31.424 283.213,31.548 L282.908,31.08 C283.815,30.784 284.522,30.449 285.047,30.077 L282.974,30.077 L282.974,29.6 L284.484,29.6 L284.484,29.036 L283.433,29.036 L283.433,28.549 L284.484,28.549 L284.484,28.071 L283.185,28.071 L283.185,27.594 L284.484,27.594 L284.484,27.097 L283.395,27.097 L283.395,25.559 L285.573,25.559 L285.573,27.097 L285.019,27.097 L285.019,27.594 L286.48,27.594 L286.48,27.097 L285.936,27.097 L285.936,25.559 L288.152,25.559 L288.152,27.097 L287.025,27.097 L287.025,27.594 L288.477,27.594 L288.477,28.071 L287.025,28.071 L287.025,28.549 L288.257,28.549 L288.257,29.036 L287.025,29.036 L287.025,29.6 L288.696,29.6 L288.696,30.077 L286.337,30.077 C286.48,30.373 286.671,30.669 286.872,30.898 C287.245,30.66 287.502,30.488 287.885,30.144 L288.267,30.517 C287.846,30.851 287.588,31.032 287.235,31.262 C287.665,31.634 288.095,31.911 288.878,32.141 L288.878,32.141 Z M283.911,26.648 L285.057,26.648 L285.057,25.999 L283.911,25.999 L283.911,26.648 Z M285.019,28.549 L286.48,28.549 L286.48,28.071 L285.019,28.071 L285.019,28.549 Z M285.019,29.6 L286.48,29.6 L286.48,29.037 L285.019,29.037 L285.019,29.6 Z M286.452,26.648 L287.637,26.648 L287.637,25.999 L286.452,25.999 L286.452,26.648 Z" id="Fill-9" fill="#1A1918" sketch:type="MSShapeGroup"></path>
            <path d="M301.113,32.618 C299.212,32.475 297.846,31.863 296.929,30.421 L296.213,30.421 L296.213,31.462 C296.624,31.396 296.881,31.357 297.292,31.271 L297.311,32.141 C296.242,32.341 295.42,32.503 294.264,32.656 L294.025,31.691 C294.369,31.682 294.713,31.653 295.162,31.605 L295.162,30.421 L294.197,30.421 C294.054,31.3 293.815,32.025 293.471,32.675 L292.535,31.939 C292.965,31.262 293.299,30.307 293.299,29.266 L293.299,27.499 L301.027,27.499 L301.027,28.33 L294.274,28.33 L294.274,29.266 C294.274,29.409 294.264,29.466 294.264,29.628 L301.18,29.628 L301.18,30.421 L300.072,30.421 L300.693,30.784 C300.339,30.975 300.024,31.176 299.489,31.396 C300.11,31.558 300.683,31.634 301.371,31.672 L301.113,32.618 L301.113,32.618 Z M293.691,24.279 L300.54,24.279 L300.54,27.193 L293.691,27.193 L293.691,24.279 Z M294.751,25.406 L299.489,25.406 L299.489,25.072 L294.751,25.072 L294.751,25.406 Z M294.751,26.429 L299.489,26.429 L299.489,26.085 L294.751,26.085 L294.751,26.429 Z M294.751,28.625 L300.645,28.625 L300.645,29.341 L294.751,29.341 L294.751,28.625 Z M297.98,30.421 C298.238,30.698 298.429,30.851 298.667,30.994 C299.002,30.841 299.27,30.688 299.737,30.421 L297.98,30.421 L297.98,30.421 Z" id="Fill-10" fill="#1A1918" sketch:type="MSShapeGroup"></path>
            <path d="M313.71,28.358 L313.71,29.103 L312.268,29.103 C312.297,29.59 312.326,30.01 312.392,30.393 C312.622,30.087 312.755,29.819 312.975,29.399 L313.663,29.886 C313.328,30.431 312.965,30.88 312.612,31.29 C312.698,31.529 312.784,31.653 312.889,31.653 C312.956,31.653 313.023,31.567 313.089,31.386 C313.089,31.357 313.099,31.319 313.109,31.29 L313.195,31.032 L313.892,31.443 C313.72,31.939 313.52,32.274 313.3,32.437 C313.176,32.551 313.032,32.618 312.841,32.618 C312.622,32.618 312.44,32.494 312.211,32.236 C312.134,32.159 312.058,32.055 311.972,31.931 C311.638,32.188 311.409,32.389 311.112,32.551 L310.702,31.815 C310.597,32.149 310.492,32.283 310.348,32.36 C310.09,32.503 309.727,32.589 309.192,32.58 C309.039,32.58 308.744,32.57 308.285,32.542 L308.161,31.815 C308.591,31.854 308.973,31.883 309.307,31.883 C309.565,31.883 309.718,31.921 309.785,31.739 L309.794,31.711 C309.804,31.682 309.813,31.644 309.813,31.558 L307.941,31.558 L308.361,30.736 L307.836,30.736 L307.836,30.201 L307.521,29.896 L307.521,32.007 L306.632,32.007 L306.632,31.596 L306.145,31.596 L306.145,32.245 L305.257,32.245 L305.257,24.451 L307.521,24.451 L307.521,29.743 C307.913,29.562 308.227,29.399 308.6,29.103 L307.674,29.103 L307.674,28.358 L309.116,28.358 L309.116,28.167 C308.744,28.215 308.409,28.215 308.056,28.243 L307.884,27.565 C308.906,27.499 309.861,27.432 310.778,27.307 L311.036,27.947 C310.74,27.995 310.377,28.043 309.966,28.081 L309.966,28.358 L311.322,28.358 C311.313,27.985 311.313,27.747 311.313,27.393 L312.23,27.393 C312.23,27.766 312.23,28.004 312.239,28.358 L313.71,28.358 L313.71,28.358 Z M306.145,27.432 L306.632,27.432 L306.632,25.407 L306.145,25.407 L306.145,27.432 Z M306.145,30.717 L306.632,30.717 L306.632,28.282 L306.145,28.282 L306.145,30.717 Z M307.769,27.25 L307.769,26.515 L310.147,26.515 L310.147,26.199 L308.065,26.199 L308.065,25.512 L310.147,25.512 L310.147,25.215 L307.874,25.215 L307.874,24.489 L309.001,24.489 C308.896,24.327 308.858,24.241 308.791,24.136 L309.842,23.897 C309.928,24.079 309.995,24.231 310.1,24.489 L311.322,24.489 C311.437,24.298 311.542,24.117 311.628,23.897 L312.708,24.126 C312.641,24.231 312.602,24.327 312.517,24.489 L313.596,24.489 L313.596,25.215 L311.217,25.215 L311.217,25.512 L313.395,25.512 L313.395,26.199 L311.217,26.199 L311.217,26.515 L313.71,26.515 L313.71,27.25 L307.769,27.25 L307.769,27.25 Z M309.116,29.38 C308.839,29.724 308.696,29.81 308.285,30.067 L309.116,30.067 L309.116,29.38 L309.116,29.38 Z M311.064,30.067 L311.064,30.736 L309.259,30.736 L309.106,30.956 L310.797,30.956 C310.788,31.29 310.759,31.52 310.721,31.72 C311.093,31.538 311.351,31.366 311.628,31.108 C311.475,30.621 311.389,30.029 311.351,29.103 L309.966,29.103 L309.966,30.067 L311.064,30.067 L311.064,30.067 Z M310.73,30.039 C310.511,29.858 310.367,29.752 310.09,29.571 L310.453,29.122 C310.644,29.237 310.845,29.352 311.103,29.533 L310.73,30.039 L310.73,30.039 Z M313.089,28.358 C312.889,28.119 312.669,27.928 312.478,27.728 L313.013,27.307 C313.214,27.489 313.434,27.689 313.615,27.909 L313.089,28.358 L313.089,28.358 Z" id="Fill-11" fill="#1A1918" sketch:type="MSShapeGroup"></path>
            <path d="M317.463,32.369 C318.084,31.653 318.399,31.204 318.915,30.459 L319.383,30.784 C318.848,31.567 318.523,32.063 317.912,32.771 L317.463,32.369 L317.463,32.369 Z M320.128,30.259 L320.128,29.752 L318.657,29.752 L318.657,30.259 L318.103,30.259 L318.103,24.623 L320.692,24.623 L320.692,30.259 L320.128,30.259 L320.128,30.259 Z M318.667,26.887 L320.128,26.887 L320.128,25.148 L318.667,25.148 L318.667,26.887 Z M318.667,29.237 L320.128,29.237 L320.128,27.403 L318.667,27.403 L318.667,29.237 Z M320.835,32.666 C320.654,31.921 320.568,31.51 320.319,30.784 L320.845,30.583 C321.102,31.348 321.236,31.777 321.418,32.475 L320.835,32.666 L320.835,32.666 Z M324.465,27.326 C324.197,27.326 323.853,27.298 323.481,27.231 L323.424,26.648 C323.911,26.734 324.274,26.763 324.532,26.763 C324.77,26.763 324.856,26.734 324.904,26.553 C324.981,26.256 325.057,25.483 325.057,24.958 L323.347,24.958 C323.147,26.371 322.516,27.202 321.036,27.813 L320.778,27.298 C322.201,26.715 322.622,26.037 322.803,24.958 L321.064,24.958 L321.064,24.432 L325.668,24.432 C325.64,25.473 325.611,26.19 325.506,26.582 C325.372,27.097 325.153,27.326 324.465,27.326 L324.465,27.326 Z M321.523,27.728 L325.449,27.728 L325.449,30.23 L321.523,30.23 L321.523,27.728 Z M322.105,29.714 L324.866,29.714 L324.866,28.253 L322.105,28.253 L322.105,29.714 Z M323.089,32.589 C322.803,31.873 322.622,31.452 322.287,30.784 L322.765,30.507 C323.147,31.224 323.319,31.586 323.624,32.303 L323.089,32.589 L323.089,32.589 Z M325.735,32.761 C325.181,31.931 324.837,31.472 324.255,30.736 L324.703,30.373 C325.267,31.09 325.659,31.538 326.213,32.322 L325.735,32.761 L325.735,32.761 Z" id="Fill-12" fill="#1A1918" sketch:type="MSShapeGroup"></path>
            <path d="M329.841,32.083 C331.847,31.777 332.592,31.529 332.792,29.638 L333.404,29.714 C333.203,31.863 332.248,32.417 330.07,32.723 L329.841,32.083 L329.841,32.083 Z M329.965,25.473 L329.965,24.891 L334.006,24.891 C333.824,24.671 333.662,24.48 333.385,24.184 L333.834,23.831 C334.216,24.203 334.454,24.48 334.77,24.853 L334.722,24.891 L338.428,24.891 L338.428,25.473 L329.965,25.473 L329.965,25.473 Z M337.473,30.249 L337.473,29.151 L330.901,29.151 L330.901,30.287 L330.29,30.287 L330.29,28.587 L338.075,28.587 L338.075,30.249 L337.473,30.249 L337.473,30.249 Z M331.742,26.113 L336.652,26.113 L336.652,27.966 L331.742,27.966 L331.742,26.113 Z M332.344,27.413 L336.06,27.413 L336.06,26.648 L332.344,26.648 L332.344,27.413 Z M337.483,32.427 C336.881,32.446 336.327,32.446 335.821,32.427 C335.104,32.398 334.942,32.149 334.942,31.424 L334.942,29.657 L335.543,29.657 L335.543,31.386 C335.543,31.758 335.582,31.797 335.849,31.797 C336.336,31.825 336.881,31.825 337.473,31.797 C337.789,31.787 337.827,31.758 337.855,31.538 C337.884,31.319 337.884,31.108 337.913,30.679 L338.553,30.956 C338.543,31.224 338.524,31.424 338.495,31.644 C338.419,32.283 338.17,32.398 337.483,32.427 L337.483,32.427 Z" id="Fill-13" fill="#1A1918" sketch:type="MSShapeGroup"></path>
            <path d="M346.852,28.969 L343.958,28.969 L343.958,31.51 C345.066,31.252 345.897,31.032 346.852,30.755 L346.957,31.366 C345.162,31.873 344.006,32.169 342.506,32.503 L342.267,31.883 C342.754,31.777 343.002,31.729 343.328,31.653 L343.328,24.403 L349.937,24.403 L349.937,26.963 L347.187,26.963 C347.206,27.489 347.263,27.957 347.368,28.368 L350.845,28.368 L350.845,28.969 L347.53,28.969 C348.218,30.994 349.651,31.901 350.061,31.901 C350.243,31.901 350.272,31.586 350.396,30.479 L351.036,30.908 C350.807,32.169 350.692,32.58 350.166,32.58 C349.335,32.58 347.568,31.424 346.852,28.969 L346.852,28.969 Z M343.958,26.371 L349.307,26.371 L349.307,24.996 L343.958,24.996 L343.958,26.371 Z M346.709,28.368 C346.623,27.938 346.565,27.47 346.556,26.963 L343.958,26.963 L343.958,28.368 L346.709,28.368 L346.709,28.368 Z" id="Fill-14" fill="#1A1918" sketch:type="MSShapeGroup"></path>
            <path d="M354.903,32.313 L354.903,31.672 L358.715,31.672 L358.715,29.132 L355.639,29.132 L355.639,28.492 L358.715,28.492 L358.715,26.467 L355.18,26.467 L355.18,25.827 L358.982,25.827 C358.676,25.177 358.437,24.795 358.056,24.155 L358.581,23.85 C358.992,24.528 359.249,24.91 359.651,25.665 L359.374,25.827 L362.974,25.827 L362.974,26.467 L359.412,26.467 L359.412,28.492 L362.478,28.492 L362.478,29.132 L359.412,29.132 L359.412,31.672 L363.223,31.672 L363.223,32.313 L354.903,32.313" id="Fill-15" fill="#1A1918" sketch:type="MSShapeGroup"></path>
            <path d="M379.353,32.422 L378.422,32.422 L381.835,24.577 L382.61,24.577 L386.023,32.422 L385.093,32.422 L384.228,30.361 L380.217,30.361 L379.353,32.422 L379.353,32.422 Z M380.516,29.629 L383.918,29.629 L382.223,25.507 L380.516,29.629 L380.516,29.629 Z" id="Fill-16" fill="#1A1918" sketch:type="MSShapeGroup"></path>
            <path d="M392.118,24.577 L394.467,24.577 L397.802,30.028 L397.824,30.028 L397.824,24.577 L399.553,24.577 L399.553,32.422 L397.292,32.422 L393.869,26.837 L393.846,26.837 L393.846,32.422 L392.118,32.422 L392.118,24.577" id="Fill-17" fill="#1A1918" sketch:type="MSShapeGroup"></path>
            <path d="M402.337,24.577 L407.667,24.577 L407.667,26.172 L404.066,26.172 L404.066,27.635 L407.468,27.635 L407.468,29.23 L404.066,29.23 L404.066,30.826 L407.867,30.826 L407.867,32.422 L402.337,32.422 L402.337,24.577" id="Fill-18" fill="#1A1918" sketch:type="MSShapeGroup"></path>
            <path d="M409.568,24.577 L411.452,24.577 L412.703,29.607 L412.726,29.607 L414.366,24.577 L415.973,24.577 L417.602,29.74 L417.624,29.74 L418.942,24.577 L420.693,24.577 L418.399,32.422 L416.859,32.422 L415.13,26.992 L415.108,26.992 L413.379,32.422 L411.895,32.422 L409.568,24.577" id="Fill-19" fill="#1A1918" sketch:type="MSShapeGroup"></path>
            <path d="M426.964,24.577 L429.557,24.577 C430.185,24.577 430.782,24.647 431.347,24.787 C431.912,24.928 432.405,25.155 432.826,25.469 C433.247,25.783 433.582,26.191 433.829,26.693 C434.076,27.195 434.2,27.805 434.2,28.521 C434.2,29.157 434.08,29.716 433.84,30.2 C433.6,30.685 433.277,31.091 432.871,31.419 C432.464,31.748 431.995,31.997 431.463,32.167 C430.931,32.337 430.374,32.422 429.79,32.422 L426.964,32.422 L426.964,24.577 L426.964,24.577 Z M428.693,30.826 L429.59,30.826 C429.989,30.826 430.361,30.786 430.704,30.704 C431.048,30.623 431.345,30.488 431.596,30.3 C431.847,30.111 432.045,29.864 432.189,29.558 C432.333,29.251 432.405,28.876 432.405,28.433 C432.405,28.049 432.333,27.714 432.189,27.43 C432.045,27.146 431.851,26.911 431.607,26.726 C431.363,26.542 431.077,26.403 430.749,26.311 C430.419,26.218 430.074,26.172 429.712,26.172 L428.693,26.172 L428.693,30.826 L428.693,30.826 Z" id="Fill-20" fill="#1A1918" sketch:type="MSShapeGroup"></path>
            <path d="M438.695,24.577 L440.124,24.577 L443.537,32.422 L441.587,32.422 L440.911,30.76 L437.864,30.76 L437.21,32.422 L435.304,32.422 L438.695,24.577 L438.695,24.577 Z M439.359,26.859 L438.407,29.297 L440.324,29.297 L439.359,26.859 L439.359,26.859 Z" id="Fill-21" fill="#1A1918" sketch:type="MSShapeGroup"></path>
            <path d="M446.482,29.076 L443.535,24.577 L445.685,24.577 L447.347,27.513 L449.108,24.577 L451.158,24.577 L448.211,29.076 L448.211,32.422 L446.482,32.422 L446.482,29.076" id="Fill-22" fill="#1A1918" sketch:type="MSShapeGroup"></path>
            <path d="M458.804,31.292 L458.826,31.292 L460.798,24.577 L461.751,24.577 L463.724,31.292 L463.746,31.292 L465.607,24.577 L466.494,24.577 L464.178,32.422 L463.247,32.422 L461.275,25.707 L461.253,25.707 L459.28,32.422 L458.349,32.422 L456.034,24.577 L456.92,24.577 L458.804,31.292" id="Fill-23" fill="#1A1918" sketch:type="MSShapeGroup"></path>
            <path d="M468.717,24.577 L469.515,24.577 L469.515,32.422 L468.717,32.422 L468.717,24.577 Z" id="Fill-24" fill="#1A1918" sketch:type="MSShapeGroup"></path>
            <path d="M473.502,31.69 L477.158,31.69 L477.158,32.422 L472.704,32.422 L472.704,24.577 L473.502,24.577 L473.502,31.69" id="Fill-25" fill="#1A1918" sketch:type="MSShapeGroup"></path>
            <path d="M480.189,31.69 L483.845,31.69 L483.845,32.422 L479.391,32.422 L479.391,24.577 L480.189,24.577 L480.189,31.69" id="Fill-26" fill="#1A1918" sketch:type="MSShapeGroup"></path>
            <path d="M496.688,31.181 C496.556,31.381 496.391,31.569 496.195,31.746 C495.999,31.924 495.776,32.077 495.525,32.206 C495.274,32.335 495.002,32.437 494.71,32.511 C494.418,32.585 494.11,32.621 493.785,32.621 C493.202,32.621 492.661,32.518 492.162,32.312 C491.663,32.104 491.231,31.818 490.865,31.452 C490.5,31.087 490.213,30.653 490.007,30.15 C489.8,29.648 489.696,29.098 489.696,28.499 C489.696,27.901 489.8,27.351 490.007,26.848 C490.213,26.346 490.5,25.912 490.865,25.546 C491.231,25.181 491.663,24.895 492.162,24.688 C492.661,24.48 493.202,24.377 493.785,24.377 C494.273,24.377 494.76,24.473 495.248,24.665 C495.735,24.857 496.153,25.175 496.5,25.618 L495.802,26.139 C495.721,26.014 495.61,25.888 495.47,25.762 C495.329,25.637 495.168,25.526 494.988,25.43 C494.807,25.334 494.612,25.256 494.406,25.197 C494.199,25.138 493.992,25.108 493.785,25.108 C493.283,25.108 492.832,25.201 492.434,25.386 C492.035,25.57 491.697,25.818 491.419,26.128 C491.142,26.438 490.93,26.798 490.782,27.208 C490.634,27.618 490.56,28.049 490.56,28.499 C490.56,28.95 490.634,29.38 490.782,29.79 C490.93,30.2 491.142,30.561 491.419,30.871 C491.697,31.181 492.035,31.429 492.434,31.613 C492.832,31.798 493.283,31.891 493.785,31.891 C493.992,31.891 494.197,31.872 494.4,31.835 C494.603,31.798 494.803,31.735 494.999,31.646 C495.194,31.558 495.379,31.438 495.553,31.286 C495.726,31.135 495.887,30.944 496.035,30.716 L496.688,31.181" id="Fill-27" fill="#1A1918" sketch:type="MSShapeGroup"></path>
            <path d="M506.577,28.499 C506.577,29.098 506.473,29.648 506.267,30.15 C506.06,30.653 505.773,31.087 505.408,31.452 C505.042,31.818 504.61,32.104 504.111,32.312 C503.613,32.518 503.071,32.621 502.488,32.621 C501.904,32.621 501.363,32.518 500.865,32.312 C500.366,32.104 499.934,31.818 499.568,31.452 C499.203,31.087 498.916,30.653 498.709,30.15 C498.502,29.648 498.399,29.098 498.399,28.499 C498.399,27.901 498.502,27.351 498.709,26.848 C498.916,26.346 499.203,25.912 499.568,25.546 C499.934,25.181 500.366,24.895 500.865,24.688 C501.363,24.48 501.904,24.377 502.488,24.377 C503.071,24.377 503.613,24.48 504.111,24.688 C504.61,24.895 505.042,25.181 505.408,25.546 C505.773,25.912 506.06,26.346 506.267,26.848 C506.473,27.351 506.577,27.901 506.577,28.499 L506.577,28.499 Z M505.712,28.499 C505.712,28.049 505.639,27.618 505.491,27.208 C505.343,26.798 505.131,26.438 504.853,26.128 C504.577,25.818 504.239,25.57 503.84,25.386 C503.441,25.201 502.99,25.108 502.488,25.108 C501.985,25.108 501.535,25.201 501.136,25.386 C500.737,25.57 500.399,25.818 500.122,26.128 C499.845,26.438 499.633,26.798 499.485,27.208 C499.337,27.618 499.263,28.049 499.263,28.499 C499.263,28.95 499.337,29.38 499.485,29.79 C499.633,30.2 499.845,30.561 500.122,30.871 C500.399,31.181 500.737,31.429 501.136,31.613 C501.535,31.798 501.985,31.891 502.488,31.891 C502.99,31.891 503.441,31.798 503.84,31.613 C504.239,31.429 504.577,31.181 504.853,30.871 C505.131,30.561 505.343,30.2 505.491,29.79 C505.639,29.38 505.712,28.95 505.712,28.499 L505.712,28.499 Z" id="Fill-28" fill="#1A1918" sketch:type="MSShapeGroup"></path>
            <path d="M513.14,30.959 L515.788,24.577 L517.007,24.577 L517.007,32.422 L516.209,32.422 L516.209,25.64 L516.187,25.64 L513.35,32.422 L512.93,32.422 L510.093,25.64 L510.071,25.64 L510.071,32.422 L509.273,32.422 L509.273,24.577 L510.492,24.577 L513.14,30.959" id="Fill-29" fill="#1A1918" sketch:type="MSShapeGroup"></path>
            <path d="M520.99,31.69 L525.189,31.69 L525.189,32.422 L520.192,32.422 L520.192,24.577 L525.056,24.577 L525.056,25.308 L520.99,25.308 L520.99,27.979 L524.79,27.979 L524.79,28.71 L520.99,28.71 L520.99,31.69" id="Fill-30" fill="#1A1918" sketch:type="MSShapeGroup"></path>
        </g>
    </g>
</svg>